<?xml version="1.0" standalone="no"?>
<!DOCTYPE svg PUBLIC "-//W3C//DTD SVG 20010904//EN"
 "http://www.w3.org/TR/2001/REC-SVG-20010904/DTD/svg10.dtd">
<svg version="1.0" xmlns="http://www.w3.org/2000/svg"
 width="747.000000pt" height="760.000000pt" viewBox="0 0 747.000000 760.000000"
 preserveAspectRatio="xMidYMid meet">

<g transform="translate(0.000000,760.000000) scale(0.100000,-0.100000)"
fill="#000000" stroke="none">
<path d="M3770 5088 l-335 -214 -5 -136 -5 -136 -245 114 c-373 175 -379 177
-396 163 -12 -10 -14 -133 -14 -835 l0 -824 35 0 35 0 0 790 0 790 33 -14 c17
-7 95 -44 172 -81 77 -37 195 -94 263 -126 l122 -58 0 -651 0 -650 35 0 35 0
0 808 0 809 279 176 c153 97 286 179 295 183 15 6 16 -74 16 -985 l0 -991 35
0 35 0 0 790 0 790 33 -14 c17 -7 88 -41 157 -74 69 -33 187 -89 263 -125
l137 -66 0 -650 0 -651 35 0 35 0 0 663 c0 515 -3 667 -12 679 -7 9 -157 84
-333 167 l-320 151 -5 207 c-5 200 -6 208 -25 211 -13 2 -146 -77 -355 -210z"/>
<path d="M2962 4438 c-13 -13 -16 -66 -6 -92 3 -9 16 -16 29 -16 26 0 35 17
35 64 0 32 -15 56 -35 56 -6 0 -16 -5 -23 -12z"/>
<path d="M3112 4438 c-13 -13 -16 -66 -6 -92 3 -9 16 -16 29 -16 25 0 35 17
35 56 0 52 -31 79 -58 52z"/>
<path d="M3261 4436 c-7 -8 -11 -34 -9 -58 3 -38 6 -43 28 -43 23 0 25 4 28
49 2 32 -1 52 -10 57 -18 12 -24 11 -37 -5z"/>
<path d="M3622 4438 c-16 -16 -16 -80 0 -96 30 -30 58 -8 58 44 0 52 -31 79
-58 52z"/>
<path d="M3772 4441 c-9 -5 -12 -25 -10 -57 3 -45 5 -49 28 -49 23 0 25 4 28
49 3 44 -6 66 -28 66 -3 0 -11 -4 -18 -9z"/>
<path d="M3922 4441 c-9 -5 -12 -25 -10 -57 3 -45 5 -49 28 -49 23 0 25 4 28
49 3 44 -6 66 -28 66 -3 0 -11 -4 -18 -9z"/>
<path d="M4281 4436 c-17 -20 -10 -87 10 -99 30 -19 49 -1 49 46 0 59 -31 87
-59 53z"/>
<path d="M4431 4436 c-7 -8 -11 -34 -9 -58 2 -33 7 -44 22 -47 40 -7 63 71 30
103 -19 20 -28 20 -43 2z"/>
<path d="M4582 4441 c-9 -5 -12 -25 -10 -57 3 -45 5 -49 28 -49 22 0 25 5 28
43 2 24 -2 50 -9 58 -13 16 -19 17 -37 5z"/>
<path d="M2962 4228 c-16 -16 -16 -80 0 -96 17 -17 45 -15 52 4 17 45 1 104
-29 104 -6 0 -16 -5 -23 -12z"/>
<path d="M3112 4228 c-13 -13 -16 -66 -6 -92 3 -9 16 -16 29 -16 26 0 35 17
35 64 0 32 -15 56 -35 56 -6 0 -16 -5 -23 -12z"/>
<path d="M3262 4231 c-9 -5 -12 -25 -10 -57 3 -45 5 -49 28 -49 23 0 25 4 28
49 3 44 -6 66 -28 66 -3 0 -11 -4 -18 -9z"/>
<path d="M3622 4228 c-16 -16 -16 -80 0 -96 17 -17 45 -15 52 4 17 45 1 104
-29 104 -6 0 -16 -5 -23 -12z"/>
<path d="M3772 4231 c-9 -5 -12 -25 -10 -57 3 -45 5 -49 28 -49 23 0 25 4 28
49 3 44 -6 66 -28 66 -3 0 -11 -4 -18 -9z"/>
<path d="M3922 4231 c-9 -5 -12 -25 -10 -57 3 -45 5 -49 28 -49 23 0 25 4 28
49 3 44 -6 66 -28 66 -3 0 -11 -4 -18 -9z"/>
<path d="M4282 4228 c-16 -16 -16 -80 0 -96 17 -17 45 -15 52 4 17 45 1 104
-29 104 -6 0 -16 -5 -23 -12z"/>
<path d="M4432 4228 c-6 -6 -12 -29 -12 -49 0 -62 52 -80 66 -23 14 54 -23
103 -54 72z"/>
<path d="M4574 4226 c-3 -7 -4 -33 -2 -57 3 -39 6 -44 28 -44 23 0 25 4 28 49
2 32 -1 52 -10 57 -20 13 -38 11 -44 -5z"/>
<path d="M4286 4014 c-17 -17 -21 -70 -7 -92 4 -8 19 -12 32 -10 21 3 24 9 27
50 2 38 -1 49 -17 57 -15 8 -23 7 -35 -5z"/>
<path d="M4435 4016 c-12 -8 -16 -24 -13 -56 3 -40 6 -45 30 -48 22 -3 27 2
33 26 13 60 -15 104 -50 78z"/>
<path d="M4581 4021 c-8 -5 -11 -25 -9 -57 3 -45 5 -49 28 -49 23 0 25 4 28
47 2 37 -1 49 -16 57 -10 5 -24 6 -31 2z"/>
<path d="M2954 4006 c-3 -8 -4 -31 -2 -52 3 -36 5 -39 33 -39 26 0 30 4 33 29
6 50 -6 76 -34 76 -13 0 -27 -6 -30 -14z"/>
<path d="M3104 4006 c-3 -8 -4 -31 -2 -52 3 -36 5 -39 33 -39 26 0 30 4 33 29
6 50 -6 76 -34 76 -13 0 -27 -6 -30 -14z"/>
<path d="M3254 4007 c-3 -8 -4 -32 -2 -53 3 -34 6 -39 28 -39 23 0 25 3 25 50
0 44 -3 50 -23 53 -13 2 -24 -3 -28 -11z"/>
<path d="M3614 4006 c-3 -8 -4 -31 -2 -52 2 -32 7 -40 27 -42 13 -2 28 2 32
10 10 15 12 60 3 82 -8 20 -53 21 -60 2z"/>
<path d="M3764 4007 c-3 -8 -4 -32 -2 -53 3 -34 6 -39 28 -39 23 0 25 3 25 50
0 44 -3 50 -23 53 -13 2 -24 -3 -28 -11z"/>
<path d="M3914 4007 c-3 -8 -4 -32 -2 -53 3 -34 6 -39 28 -39 23 0 25 3 25 50
0 44 -3 50 -23 53 -13 2 -24 -3 -28 -11z"/>
<path d="M2962 3798 c-7 -7 -12 -29 -12 -49 0 -73 62 -78 68 -5 5 54 -26 84
-56 54z"/>
<path d="M3112 3798 c-7 -7 -12 -29 -12 -49 0 -73 62 -78 68 -5 5 54 -26 84
-56 54z"/>
<path d="M3261 3796 c-7 -8 -11 -34 -9 -58 3 -38 6 -43 28 -43 23 0 25 4 28
49 2 32 -1 52 -10 57 -18 12 -24 11 -37 -5z"/>
<path d="M3622 3798 c-7 -7 -12 -29 -12 -49 0 -73 62 -78 68 -5 5 54 -26 84
-56 54z"/>
<path d="M3772 3802 c-9 -6 -12 -26 -10 -58 3 -45 5 -49 28 -49 24 0 25 3 25
55 0 56 -13 71 -43 52z"/>
<path d="M3922 3802 c-9 -6 -12 -26 -10 -58 3 -45 5 -49 28 -49 24 0 25 3 25
55 0 56 -13 71 -43 52z"/>
<path d="M4282 3798 c-16 -16 -16 -80 0 -96 17 -17 45 -15 52 4 17 45 1 104
-29 104 -6 0 -16 -5 -23 -12z"/>
<path d="M4432 3798 c-6 -6 -12 -29 -12 -49 0 -62 52 -80 66 -23 14 54 -23
103 -54 72z"/>
<path d="M4574 3796 c-3 -7 -4 -33 -2 -57 3 -39 6 -44 28 -44 23 0 25 4 28 49
2 32 -1 52 -10 57 -20 13 -38 11 -44 -5z"/>
<path d="M2956 3574 c-11 -30 -6 -82 10 -95 34 -28 65 26 50 87 -7 28 -50 34
-60 8z"/>
<path d="M3104 3566 c-15 -61 16 -115 50 -87 19 16 21 82 4 99 -20 20 -47 14
-54 -12z"/>
<path d="M3257 3584 c-4 -4 -7 -26 -7 -49 0 -46 17 -69 44 -59 13 5 16 17 14
58 -3 43 -6 51 -23 54 -12 2 -24 0 -28 -4z"/>
<path d="M3617 3583 c-4 -3 -7 -26 -7 -49 0 -34 5 -46 22 -55 18 -10 24 -8 35
7 14 19 17 61 7 88 -6 16 -45 22 -57 9z"/>
<path d="M3767 3584 c-4 -4 -7 -26 -7 -49 0 -46 17 -69 44 -59 13 5 16 17 14
58 -3 43 -6 51 -23 54 -12 2 -24 0 -28 -4z"/>
<path d="M3917 3584 c-4 -4 -7 -26 -7 -49 0 -46 17 -69 44 -59 13 5 16 17 14
58 -3 43 -6 51 -23 54 -12 2 -24 0 -28 -4z"/>
<path d="M4276 3575 c-16 -43 4 -105 33 -105 19 0 32 32 29 72 -3 38 -6 43
-29 46 -17 2 -29 -3 -33 -13z"/>
<path d="M4427 3583 c-4 -3 -7 -26 -7 -49 0 -33 5 -46 19 -54 39 -20 67 42 41
91 -10 19 -40 26 -53 12z"/>
<path d="M4577 3584 c-13 -14 -7 -91 8 -104 26 -22 46 6 43 59 -2 37 -7 47
-23 49 -12 2 -24 0 -28 -4z"/>
<path d="M2962 3368 c-7 -7 -12 -29 -12 -49 0 -73 62 -78 68 -5 5 54 -26 84
-56 54z"/>
<path d="M3112 3368 c-7 -7 -12 -29 -12 -49 0 -73 62 -78 68 -5 5 54 -26 84
-56 54z"/>
<path d="M3254 3367 c-3 -8 -4 -34 -2 -58 3 -39 6 -44 28 -44 24 0 25 3 25 55
0 49 -2 55 -23 58 -12 2 -24 -3 -28 -11z"/>
<path d="M3623 3373 c-19 -7 -16 -88 3 -104 24 -20 48 1 52 45 5 52 -17 75
-55 59z"/>
<path d="M3764 3367 c-3 -8 -4 -34 -2 -58 3 -39 6 -44 28 -44 24 0 25 3 25 55
0 49 -2 55 -23 58 -12 2 -24 -3 -28 -11z"/>
<path d="M3914 3367 c-3 -8 -4 -34 -2 -58 3 -39 6 -44 28 -44 24 0 25 3 25 55
0 49 -2 55 -23 58 -12 2 -24 -3 -28 -11z"/>
<path d="M4282 3368 c-7 -7 -12 -29 -12 -49 0 -73 62 -78 68 -5 5 54 -26 84
-56 54z"/>
<path d="M4433 3373 c-18 -7 -17 -88 2 -103 34 -28 67 26 49 79 -9 26 -28 34
-51 24z"/>
<path d="M4574 3367 c-3 -8 -4 -34 -2 -58 3 -39 6 -44 28 -44 24 0 25 3 25 55
0 49 -2 55 -23 58 -12 2 -24 -3 -28 -11z"/>
<path d="M1497 2883 c-4 -3 -7 -70 -7 -148 l0 -142 71 -6 c79 -7 157 5 192 28
34 22 47 57 47 129 0 73 -21 109 -76 132 -34 14 -215 20 -227 7z m204 -74 c21
-11 31 -64 21 -104 -10 -37 -43 -55 -104 -55 l-48 0 0 84 0 85 28 3 c32 5 80
-1 103 -13z"/>
<path d="M1915 2878 c-3 -8 -4 -75 -3 -149 l3 -134 38 -3 37 -3 0 55 0 56 74
0 75 0 3 -52 3 -53 38 -3 38 -3 -3 148 -3 148 -35 0 -35 0 -3 -57 -3 -58 -74
0 -74 0 -3 58 c-3 56 -3 57 -36 60 -20 2 -34 -2 -37 -10z"/>
<path d="M2394 2755 c-35 -75 -64 -142 -64 -150 0 -10 10 -15 30 -15 22 0 33
6 41 24 13 29 37 34 114 28 47 -4 58 -8 67 -28 9 -18 19 -24 45 -24 18 0 33 5
33 10 0 17 -123 274 -134 282 -6 4 -24 8 -39 8 -27 0 -32 -9 -93 -135z m121 9
c21 -51 20 -54 -26 -54 -22 0 -39 3 -37 8 2 4 10 24 18 45 8 20 18 37 22 37 4
0 15 -16 23 -36z"/>
<path d="M2765 2878 c-3 -8 -4 -75 -3 -149 l3 -134 38 -3 37 -3 0 44 c0 24 2
46 4 48 3 2 24 3 48 1 39 -4 46 -8 70 -48 24 -39 32 -44 63 -44 42 0 43 8 9
66 -14 24 -21 44 -15 44 17 0 41 56 41 94 0 22 -9 45 -24 63 -24 27 -27 28
-145 31 -96 3 -122 1 -126 -10z m213 -87 c5 -32 -12 -41 -80 -41 l-58 0 0 35
0 36 68 -3 c62 -3 67 -5 70 -27z"/>
<path d="M3234 2755 c-35 -74 -64 -141 -64 -150 0 -10 10 -15 30 -15 23 0 33
6 42 25 9 20 19 25 47 25 20 0 53 3 73 6 34 6 39 4 55 -25 14 -25 25 -31 51
-31 17 0 32 5 32 10 0 6 -19 50 -41 98 -23 48 -52 111 -65 140 -22 49 -26 52
-60 52 l-35 0 -65 -135z m122 10 c21 -50 18 -55 -27 -55 -22 0 -39 3 -37 8 2
4 10 24 18 45 8 20 18 37 23 37 4 0 15 -16 23 -35z"/>
<path d="M3777 2883 c-4 -3 -7 -71 -7 -150 l0 -144 38 3 c36 3 37 4 40 48 l3
45 45 -3 c40 -4 47 -8 70 -48 22 -38 31 -44 58 -44 18 0 36 3 39 6 3 4 -5 26
-19 50 l-26 44 21 26 c21 27 28 93 15 129 -13 32 -59 45 -167 45 -57 0 -107
-3 -110 -7z m184 -62 c22 -1 31 -28 19 -52 -9 -15 -22 -19 -70 -19 -63 0 -75
8 -66 45 6 24 36 35 81 29 11 -1 27 -3 36 -3z"/>
<path d="M4187 2884 c-4 -4 -7 -72 -7 -151 l0 -144 138 3 137 3 3 33 3 32
-100 0 c-94 0 -101 1 -101 20 0 18 7 20 68 20 78 0 95 8 90 41 -3 23 -7 24
-80 27 -75 3 -78 4 -78 27 0 25 0 25 101 25 l100 0 -3 33 -3 32 -131 3 c-71 1
-133 -1 -137 -4z"/>
<path d="M4625 2753 c-36 -75 -65 -142 -65 -150 0 -8 12 -13 33 -13 26 0 36 6
45 24 20 44 148 44 177 0 18 -27 75 -35 75 -10 0 8 -29 75 -64 150 l-65 136
-35 0 -36 0 -65 -137z m145 -35 c0 -5 -18 -8 -40 -8 -46 0 -49 10 -23 65 l17
36 23 -43 c12 -24 22 -46 23 -50z"/>
<path d="M5000 2741 l0 -151 135 0 135 0 0 35 0 35 -95 0 -95 0 -2 88 c-1 48
-2 98 -2 112 -1 21 -6 25 -38 28 l-38 3 0 -150z"/>
<path d="M5317 2884 c-4 -4 -7 -20 -7 -35 0 -27 2 -28 58 -31 l57 -3 3 -112 3
-113 34 0 34 0 3 113 3 112 58 3 58 3 -3 32 -3 32 -146 3 c-80 1 -148 -1 -152
-4z"/>
<path d="M5715 2880 c-3 -5 21 -49 54 -97 56 -79 61 -91 61 -140 l0 -53 35 0
35 0 0 53 c0 47 6 61 60 142 33 49 56 93 51 98 -5 5 -21 7 -37 5 -22 -2 -38
-16 -66 -58 -20 -30 -40 -56 -45 -57 -4 -2 -17 13 -28 34 -34 63 -54 83 -85
83 -16 0 -32 -4 -35 -10z"/>
<path d="M3164 2319 c-3 -6 -2 -15 3 -20 5 -5 247 -8 593 -7 548 3 585 4 588
21 3 16 -30 17 -587 17 -414 0 -592 -3 -597 -11z"/>
</g>
</svg>
